<svg version="1" xmlns="http://www.w3.org/2000/svg" width="722.667" height="722.667" viewBox="0 0 542.000000 542.000000"><path d="M489 5.6C408.2 22.5 340.8 73 302.5 145.2c-15.5 29.4-26.3 65-29.6 98.1-1.7 17.7-.7 54.9 2 70.7 9.1 53 30.6 98.1 65.4 137.1 38.7 43.3 93.6 74.8 149.2 85.4 11.3 2.1 13.9 1.9 20.8-1.7 8.7-4.7 22.7-18.2 22.7-22 0-.4-2-.8-4.4-.8-12.9 0-42.1-5.5-59.5-11.1-28.5-9.2-57.6-25.1-80.2-43.6-55.5-45.6-88.1-114.5-88-186.3 0-24.2 1.7-37.7 7.6-60.3 14.8-57.7 50.4-107.5 101-141.2 13.5-8.9 39.1-21.4 55.2-26.9 20.5-7 48.2-12.5 62.6-12.6 3.1 0 5.7-.4 5.7-.8 0-1.7-5.8-8.8-11.2-13.7-5.1-4.7-14.7-10.6-19.3-11.8-1.1-.3-7.2.5-13.5 1.9zM147.6 48.7c.3 3.8 1.3 12 2.1 18.3 1.1 8.1 1.7 22 2 47 .2 19.5.6 36.5.8 37.7.5 2.2 1 2.3 9 2.3 8.4 0 8.6 0 9.6-2.8 3-7.6 3.2-13.4 1-26.7-3.3-20.6-4.5-42.5-3.4-61 .9-13.8.8-16.2-.5-17.7-2.1-2.4-7.5-3.8-15-3.8h-6.3l.7 6.7z"/><path d="M416.5 159.8c-7.7 2.4-14.5 5.8-33.5 17.3-8.5 5.2-20.1 11.9-25.7 14.9-5.7 3-10.3 5.8-10.3 6.2 0 1.5 8.6 6.8 11.2 6.8 4.4 0 12.4-4.1 25.9-13.2 21.2-14.5 31.9-18.8 46-18.8 15 .1 23.7 3.9 40.5 18.1 12.8 10.8 16.4 12.9 21.8 12.9 3.9 0 4.3-.9 2.6-5.4-3.3-8.7-31.7-30.2-49.1-37.2-8.6-3.5-20.9-4.1-29.4-1.6zM525.3 195.6c-2.5 3.4-2.8 4.5-3.3 15.5l-.5 11.9 3.5.5c7.8 1.3 7.8 1.2 8.4-.9.4-1.2.9-6.6 1.3-12.1.5-9 .4-10.5-1.6-14.3-1.2-2.3-2.8-4.2-3.6-4.2-.8 0-2.6 1.6-4.2 3.6zM176.7 195.6c-4.3.8-11.7 2.9-16.5 4.8-24.1 9.5-35.8 14.7-37 16.3-1.6 2.1-.9 6.8 1.9 13.2 1.8 4.1 2.1 4.3 5 3.7 1.7-.3 4.3-.6 5.8-.6 1.6 0 5.9-2.4 11.1-6.1 8.9-6.5 24.2-14.4 29.7-15.5l3.3-.6-1.9 5.3c-7.7 22.1-21.4 42.3-45.5 66.7l-15.1 15.3 3.5 6.5c1.9 3.6 3.8 6.7 4.1 6.9.3.2 5.5-.5 11.5-1.6 16.8-3 36.4-4.9 52.6-4.9H204l4.5-5.8c2.5-3.1 4.5-6.2 4.5-6.8 0-2.5-10.8-3.8-35.2-4.2-18.1-.2-24.8-.7-24.8-1.5 0-.7 6.3-9.7 14-20 20.6-27.8 27.1-39.2 32-56.4l1.8-6.1-3.4-5.1c-3.4-5-3.6-5.1-8.2-5-2.6 0-8.2.7-12.5 1.5z"/><path d="M412 196.5c-9.3 3-21.9 9.3-32.9 16.5-9.6 6.1-9.4 6.8 2.4 6.9 8.1.1 11.5-1.2 24.4-9.3 10.1-6.4 15.5-8.1 23.1-7.2 8 .9 14.3 4.5 25 14.1 5.2 4.7 10.5 8.8 11.6 9.1 2.3.6 13.6-3.5 14.1-5.1.4-1.4-27.8-19.8-36.3-23.7-9.7-4.4-20.7-4.9-31.4-1.3z"/><path d="M404.5 223.6c-18.1 3.2-33.5 8.7-44.3 15.7-7 4.6-18.2 14.3-18.2 15.8 0 .5 3.8.9 8.5.9 10.9 0 11.2 1.5 1.3 6.7-6.9 3.6-7.3 4-6.9 6.8.1 1.6.9 4.2 1.7 5.7 1.7 3.4 5 3.6 17.1 1.3 11.5-2.2 15.7-1.9 32.5 2.4 8.4 2.2 18.8 4.4 23.1 5 26.2 3.6 48.4-2.6 56.8-15.8 3.1-4.8 4.5-8.8 3.5-9.8-.3-.3-6.7 1.7-14.3 4.6-19.2 7.1-25 8.4-36.8 8.4-8.9 0-11.3-.5-22.5-4.1-17.5-5.7-28.4-8.2-36.3-8.2-6 0-6.8-.2-6.5-1.8.6-3.3 26.1-18.8 39.5-24.1l5.1-2 .6 3.7c.3 2 .8 6.1 1.2 8.9.6 5.7 3.3 10.4 7.7 13.7 4 3 15.3 3 19.3 0 4.8-3.5 6.3-6.6 7.9-15.8.8-4.9 1.7-9.1 1.9-9.3.6-.6 10.8 4.6 26.4 13.4 15 8.5 19.3 9.6 23.5 6.3 1.5-1.2 2.7-2.5 2.7-2.9 0-1.3-11.7-6.6-21-9.6-4.7-1.5-14.3-5.2-21.5-8.2-22.3-9.4-33.4-11-52-7.7zM67.7 229c-2 .4-3.9.9-4.2 1.2-.8.8-4.5 16-4.5 18.5 0 2.8-2.1 3.7-10.4 4.7-3.3.4-7.9 1.5-10.4 2.6-4.4 2-4.5 2-3.9 6.2.3 2.5 1.5 5.1 3.1 6.6 2.5 2.5 2.5 2.5 12.3 1.5 5.4-.5 10.2-.8 10.7-.5.5.3.6 6.1.3 13l-.5 12.6 2.8 2.8c3.8 3.8 7.3 3.7 11.5-.5s5.1-9.3 3.5-20.6c-.9-6.4-.9-8.6 0-9.1.7-.4 4-1 7.4-1.4 6.2-.7 21.3-4 22.2-4.9.3-.2-.7-3-2.1-6.2-2-4.5-2.8-5.6-4.2-5.1-.9.4-6.7 1-12.8 1.3l-11.2.6.4-8.9c.2-4.9.5-10.4.6-12.2.3-3.1.2-3.2-3.3-3.1-1.9.1-5.2.5-7.3.9zM538.2 254.6c-5.6 8.6-8.3 19.1-10.7 42.9-.9 8.8-1.9 17-2.1 18.1-.5 1.7 1 3.5 7.3 8.8 4.3 3.6 8.1 6.6 8.6 6.6.9 0 .8-74.6-.1-77.7-.7-2.1-.8-2.1-3 1.3zM483.7 324c-7.7 8.4-9.4 16.2-5.4 24 2.9 6 10.3 9.6 30.2 15 8.2 2.3 15.1 4.3 15.3 4.5.2.2 1.1 3.8 1.8 7.9 1.9 9.6 3.6 13.7 8 18.6 3.1 3.4 3.4 4.3 2.8 7.4-.7 4.1-.2 4-9.1 2.2-3.8-.8-15.9-2.6-26.9-4-23.3-3-36.6-6.1-46.9-11.1-6.8-3.3-7.9-4.2-12.5-10.9-5.5-8.2-9.2-11.6-12.5-11.6-4.5 0-14.5 10-21 21.1-6.8 11.6-13.8 33-12.2 37.2.3.9 3.3 3 6.5 4.6 5.6 2.8 6.1 2.9 7.5 1.3 2.5-2.9 4.6-7.7 6.8-15.9 2.8-10.1 5.1-14.6 9.1-17.6 5.9-4.4 6.4-4.3 23.4 4.1 19.6 9.8 35 15 56.4 19.1 9.3 1.8 28.6 4.1 34.8 4.1h2.2l-.2-31-.3-31-24.5-9.8-24.5-9.8-2.2-10c-1.2-5.4-2.4-10.5-2.5-11.3-.2-.9-1.7.2-4.1 2.9zM55.2 338.7c-2.7.3-4 1.4-6.8 6-2 3-3.4 5.6-3.2 5.8.1.1 3.3 1.2 7.1 2.4 6.2 1.9 7.6 2 18 .9 10.6-1 34.5-1.3 77.7-.8 20.3.2 53.6-1.5 57.5-3 2.9-1.1 4-6 1.7-7.8-4.1-3.2-9.7-3.7-38.7-3.7-18.9 0-30.9.5-34.5 1.3-4 .8-7.2.9-11.5.2-6.3-1.1-61.6-2.2-67.3-1.3zM134 386c-6.5 1.2-14 4.2-19.3 7.9-2.6 1.8-4.7 3.4-4.7 3.7 0 1.3 4.2 8.3 6.7 11.1l2.8 3.2 9.5-3.9c5.2-2.2 11.2-4 13.2-4 4.4 0 13.9 1.9 15.2 3 1.4 1.4-3.9 9.3-10.3 15.2-3.3 3.1-11.1 8.5-17.4 12.2-6.3 3.7-12.3 7.6-13.3 8.7-2.6 2.9-2.2 8.6.9 11.7 3.5 3.4 9.3 3.1 26.5-1.4 10.7-2.8 14.8-3.4 18.9-3 5.3.6 22 5.9 23.5 7.4.6.6-2.9 3.9-8.1 8.1-7.4 5.9-10.6 7.7-17.7 10.1-11.8 4-22.9 6-33.5 6H118v14.6l5.7 3.4 5.6 3.4 12.6-4.3c30.2-10.5 47.1-19.3 59.1-30.7l7.4-7.2-1.1-7.7c-.6-4.3-1.7-8.1-2.4-8.6-2.9-1.9-22.7-7.7-29.9-8.9-4.1-.6-8.5-1.4-9.7-1.6-2-.4-1.9-.9 3.2-9 4.7-7.5 11.5-22.4 11.5-25.3 0-.6-2.7-3.2-6-5.9-4.8-3.8-7.6-5.2-12.8-6.5-8.5-2-21.3-2.8-27.2-1.7z"/><path d="M426.7 411.1l-2.6 4.3 3.2 2.3c6.4 4.7 61.3 31.2 72.9 35.2 10.1 3.4 38.3 11.1 40.9 11.1 1.5 0 1.1-19-.3-19.4-.7-.2-7.6-1.1-15.3-2-25.5-3-34.3-6.3-58.2-21.7-15.5-10.1-22.6-13.1-31.4-13.7l-6.7-.4-2.5 4.3z"/></svg>